<svg xmlns="http://www.w3.org/2000/svg" xmlns:xlink="http://www.w3.org/1999/xlink" width="1366" zoomAndPan="magnify" viewBox="0 0 1024.5 576" height="768" preserveAspectRatio="xMidYMid meet" version="1.0"><defs><g/><clipPath id="e7ca542079"><rect x="0" width="457" y="0" height="124"/></clipPath><clipPath id="3e606e867b"><path d="M 127 0.0898438 L 201 0.0898438 L 201 96 L 127 96 Z M 127 0.0898438 " clip-rule="nonzero"/></clipPath><clipPath id="ed259fde0a"><path d="M 253 0.0898438 L 330 0.0898438 L 330 96 L 253 96 Z M 253 0.0898438 " clip-rule="nonzero"/></clipPath><clipPath id="cab3507553"><rect x="0" width="431" y="0" height="124"/></clipPath></defs><g transform="matrix(1, 0, 0, 1, 239, 114)"><g clip-path="url(#e7ca542079)"><g fill="#5e17eb" fill-opacity="0.4"><g transform="translate(6.073217, 98.177363)"><g><path d="M 11.921875 -90.234375 L 68.609375 -90.234375 L 66.171875 -71.265625 L 31.46875 -71.265625 L 29.390625 -55.53125 L 58.3125 -55.53125 L 55.765625 -36.5625 L 26.84375 -36.5625 L 24.53125 -18.96875 L 59.234375 -18.96875 L 56.796875 0 L 0.109375 0 Z M 11.921875 -90.234375 "/></g></g></g><g fill="#5e17eb" fill-opacity="0.4"><g transform="translate(81.845617, 98.177363)"><g><path d="M 28.6875 -90.234375 L 58.765625 -90.234375 L 68.484375 0 L 45 0 L 43.609375 -18.28125 L 24.875 -18.28125 L 18.96875 0 L -4.625 0 Z M 40.375 -64.78125 L 31.234375 -37.25 L 42.34375 -37.25 Z M 40.375 -64.78125 "/></g></g></g><g fill="#5e17eb" fill-opacity="0.4"><g transform="translate(164.32731, 98.177363)"><g><path d="M 35.859375 1.625 C 27.765625 1.625 21.070312 0.0820312 15.78125 -3 C 10.5 -6.09375 6.816406 -10.894531 4.734375 -17.40625 C 2.660156 -23.925781 2.316406 -32.390625 3.703125 -42.796875 L 4.28125 -47.203125 C 6.363281 -62.859375 10.679688 -74.210938 17.234375 -81.265625 C 23.796875 -88.328125 33.128906 -91.859375 45.234375 -91.859375 C 56.265625 -91.859375 64.4375 -89.273438 69.75 -84.109375 C 75.070312 -78.941406 77.039062 -70.921875 75.65625 -60.046875 L 75.078125 -55.53125 L 53.09375 -55.53125 C 53.789062 -60.769531 53.617188 -64.972656 52.578125 -68.140625 C 51.535156 -71.304688 48.859375 -72.890625 44.546875 -72.890625 L 43.265625 -72.890625 C 39.640625 -72.890625 36.726562 -71.828125 34.53125 -69.703125 C 32.332031 -67.578125 30.632812 -64.601562 29.4375 -60.78125 C 28.25 -56.96875 27.304688 -52.441406 26.609375 -47.203125 L 26.03125 -42.796875 C 25.03125 -34.929688 25.242188 -28.722656 26.671875 -24.171875 C 28.097656 -19.628906 31.546875 -17.359375 37.015625 -17.359375 L 38.296875 -17.359375 C 39.992188 -17.359375 41.785156 -17.585938 43.671875 -18.046875 C 45.554688 -18.503906 47.078125 -19.046875 48.234375 -19.671875 L 49.75 -31.234375 L 38.875 -31.234375 L 41.421875 -50.203125 L 74.265625 -50.203125 L 68.828125 -9.03125 C 66.515625 -7.175781 63.894531 -5.4375 60.96875 -3.8125 C 58.039062 -2.195312 54.550781 -0.890625 50.5 0.109375 C 46.445312 1.117188 41.566406 1.625 35.859375 1.625 Z M 35.859375 1.625 "/></g></g></g><g fill="#5e17eb" fill-opacity="0.4"><g transform="translate(251.667753, 98.177363)"><g><path d="M 53.90625 0 L 0.109375 0 L 11.921875 -90.234375 L 33.890625 -90.234375 L 24.53125 -18.96875 L 56.34375 -18.96875 Z M 53.90625 0 "/></g></g></g><g fill="#5e17eb" fill-opacity="0.4"><g transform="translate(321.656122, 98.177363)"><g><path d="M 11.921875 -90.234375 L 68.609375 -90.234375 L 66.171875 -71.265625 L 31.46875 -71.265625 L 29.390625 -55.53125 L 58.3125 -55.53125 L 55.765625 -36.5625 L 26.84375 -36.5625 L 24.53125 -18.96875 L 59.234375 -18.96875 L 56.796875 0 L 0.109375 0 Z M 11.921875 -90.234375 "/></g></g></g><g fill="#5e17eb" fill-opacity="0.4"><g transform="translate(397.429261, 98.177363)"><g/></g></g><g fill="#5e17eb" fill-opacity="0.4"><g transform="translate(429.24308, 98.177363)"><g/></g></g><g fill="#5e17eb" fill-opacity="1"><g transform="translate(0.959805, 93.06395)"><g><path d="M 11.921875 -90.234375 L 68.609375 -90.234375 L 66.171875 -71.265625 L 31.46875 -71.265625 L 29.390625 -55.53125 L 58.3125 -55.53125 L 55.765625 -36.5625 L 26.84375 -36.5625 L 24.53125 -18.96875 L 59.234375 -18.96875 L 56.796875 0 L 0.109375 0 Z M 11.921875 -90.234375 "/></g></g></g><g fill="#5e17eb" fill-opacity="1"><g transform="translate(76.732205, 93.06395)"><g><path d="M 28.6875 -90.234375 L 58.765625 -90.234375 L 68.484375 0 L 45 0 L 43.609375 -18.28125 L 24.875 -18.28125 L 18.96875 0 L -4.625 0 Z M 40.375 -64.78125 L 31.234375 -37.25 L 42.34375 -37.25 Z M 40.375 -64.78125 "/></g></g></g><g fill="#5e17eb" fill-opacity="1"><g transform="translate(159.213898, 93.06395)"><g><path d="M 35.859375 1.625 C 27.765625 1.625 21.070312 0.0820312 15.78125 -3 C 10.5 -6.09375 6.816406 -10.894531 4.734375 -17.40625 C 2.660156 -23.925781 2.316406 -32.390625 3.703125 -42.796875 L 4.28125 -47.203125 C 6.363281 -62.859375 10.679688 -74.210938 17.234375 -81.265625 C 23.796875 -88.328125 33.128906 -91.859375 45.234375 -91.859375 C 56.265625 -91.859375 64.4375 -89.273438 69.75 -84.109375 C 75.070312 -78.941406 77.039062 -70.921875 75.65625 -60.046875 L 75.078125 -55.53125 L 53.09375 -55.53125 C 53.789062 -60.769531 53.617188 -64.972656 52.578125 -68.140625 C 51.535156 -71.304688 48.859375 -72.890625 44.546875 -72.890625 L 43.265625 -72.890625 C 39.640625 -72.890625 36.726562 -71.828125 34.53125 -69.703125 C 32.332031 -67.578125 30.632812 -64.601562 29.4375 -60.78125 C 28.25 -56.96875 27.304688 -52.441406 26.609375 -47.203125 L 26.03125 -42.796875 C 25.03125 -34.929688 25.242188 -28.722656 26.671875 -24.171875 C 28.097656 -19.628906 31.546875 -17.359375 37.015625 -17.359375 L 38.296875 -17.359375 C 39.992188 -17.359375 41.785156 -17.585938 43.671875 -18.046875 C 45.554688 -18.503906 47.078125 -19.046875 48.234375 -19.671875 L 49.75 -31.234375 L 38.875 -31.234375 L 41.421875 -50.203125 L 74.265625 -50.203125 L 68.828125 -9.03125 C 66.515625 -7.175781 63.894531 -5.4375 60.96875 -3.8125 C 58.039062 -2.195312 54.550781 -0.890625 50.5 0.109375 C 46.445312 1.117188 41.566406 1.625 35.859375 1.625 Z M 35.859375 1.625 "/></g></g></g><g fill="#5e17eb" fill-opacity="1"><g transform="translate(246.554341, 93.06395)"><g><path d="M 53.90625 0 L 0.109375 0 L 11.921875 -90.234375 L 33.890625 -90.234375 L 24.53125 -18.96875 L 56.34375 -18.96875 Z M 53.90625 0 "/></g></g></g><g fill="#5e17eb" fill-opacity="1"><g transform="translate(316.54271, 93.06395)"><g><path d="M 11.921875 -90.234375 L 68.609375 -90.234375 L 66.171875 -71.265625 L 31.46875 -71.265625 L 29.390625 -55.53125 L 58.3125 -55.53125 L 55.765625 -36.5625 L 26.84375 -36.5625 L 24.53125 -18.96875 L 59.234375 -18.96875 L 56.796875 0 L 0.109375 0 Z M 11.921875 -90.234375 "/></g></g></g><g fill="#5e17eb" fill-opacity="1"><g transform="translate(392.315848, 93.06395)"><g/></g></g><g fill="#5e17eb" fill-opacity="1"><g transform="translate(424.129667, 93.06395)"><g/></g></g></g></g><g transform="matrix(1, 0, 0, 1, 392, 185)"><g clip-path="url(#cab3507553)"><g fill="#ffde59" fill-opacity="0.4"><g transform="translate(6.22909, 98.703621)"><g><path d="M 44.9375 0.234375 L 18.765625 0.234375 L 7.859375 -91.515625 L 28.28125 -91.515625 L 34.5 -21 L 59.375 -91.515625 L 79.78125 -91.515625 Z M 44.9375 0.234375 "/></g></g></g><g fill="#ffde59" fill-opacity="0.4"><g transform="translate(90.232947, 98.703621)"><g><path d="M 32.375 -91.515625 L 20.421875 0 L 1.40625 0 L 13.375 -91.515625 Z M 32.375 -91.515625 "/></g></g></g><g fill="#ffde59" fill-opacity="0.4"><g transform="translate(132.235812, 98.703621)"><g><path d="M 32.734375 -38.359375 C 22.878906 -40.160156 15.957031 -43.347656 11.96875 -47.921875 C 7.976562 -52.503906 6.414062 -58.117188 7.28125 -64.765625 L 7.625 -67.46875 C 8.71875 -75.914062 12.082031 -82.289062 17.71875 -86.59375 C 23.351562 -90.894531 30.863281 -93.046875 40.25 -93.046875 C 52.445312 -93.046875 61.066406 -90.382812 66.109375 -85.0625 C 71.160156 -79.738281 73.019531 -71.992188 71.6875 -61.828125 L 71.328125 -59.140625 L 52.328125 -59.140625 C 53.109375 -65.003906 52.640625 -69.378906 50.921875 -72.265625 C 49.203125 -75.160156 45.679688 -76.609375 40.359375 -76.609375 L 39.1875 -76.609375 C 36.0625 -76.609375 33.34375 -75.828125 31.03125 -74.265625 C 28.726562 -72.703125 27.378906 -70.472656 26.984375 -67.578125 L 26.75 -65.828125 C 26.519531 -64.023438 26.753906 -62.359375 27.453125 -60.828125 C 28.160156 -59.304688 29.644531 -57.957031 31.90625 -56.78125 C 34.175781 -55.613281 37.503906 -54.597656 41.890625 -53.734375 C 51.347656 -52.015625 58.265625 -48.882812 62.640625 -44.34375 C 67.023438 -39.8125 68.75 -33.945312 67.8125 -26.75 L 67.46875 -24.046875 C 66.375 -15.523438 62.910156 -9.128906 57.078125 -4.859375 C 51.253906 -0.597656 43.53125 1.53125 33.90625 1.53125 C 22.332031 1.53125 13.785156 -1.03125 8.265625 -6.15625 C 2.753906 -11.28125 0.625 -18.734375 1.875 -28.515625 L 2.234375 -31.203125 L 21.234375 -31.203125 C 20.453125 -25.335938 21.253906 -21.15625 23.640625 -18.65625 C 26.023438 -16.15625 29.410156 -14.90625 33.796875 -14.90625 L 34.96875 -14.90625 C 42.863281 -14.90625 47.242188 -17.914062 48.109375 -23.9375 L 48.34375 -25.6875 C 48.726562 -28.664062 47.84375 -31.207031 45.6875 -33.3125 C 43.539062 -35.425781 39.222656 -37.109375 32.734375 -38.359375 Z M 32.734375 -38.359375 "/></g></g></g><g fill="#ffde59" fill-opacity="0.4"><g transform="translate(215.06646, 98.703621)"><g><path d="M 32.375 -91.515625 L 20.421875 0 L 1.40625 0 L 13.375 -91.515625 Z M 32.375 -91.515625 "/></g></g></g><g fill="#ffde59" fill-opacity="0.4"><g transform="translate(257.069325, 98.703621)"><g><path d="M 44.109375 -93.046875 C 56.003906 -93.046875 64.609375 -89.460938 69.921875 -82.296875 C 75.242188 -75.140625 76.890625 -63.585938 74.859375 -47.640625 L 74.390625 -43.875 C 73.054688 -33.320312 70.820312 -24.703125 67.6875 -18.015625 C 64.5625 -11.328125 60.359375 -6.394531 55.078125 -3.21875 C 49.804688 -0.0507812 43.179688 1.53125 35.203125 1.53125 C 23.304688 1.53125 14.71875 -2.046875 9.4375 -9.203125 C 4.164062 -16.367188 2.503906 -27.925781 4.453125 -43.875 L 4.921875 -47.640625 C 6.253906 -58.273438 8.484375 -66.914062 11.609375 -73.5625 C 14.742188 -80.207031 18.96875 -85.113281 24.28125 -88.28125 C 29.601562 -91.457031 36.210938 -93.046875 44.109375 -93.046875 Z M 35.078125 -14.90625 L 36.25 -14.90625 C 42.039062 -14.90625 46.320312 -17.425781 49.09375 -22.46875 C 51.875 -27.507812 53.851562 -34.644531 55.03125 -43.875 L 55.5 -47.640625 C 56.664062 -56.867188 56.546875 -64.003906 55.140625 -69.046875 C 53.734375 -74.085938 50.097656 -76.609375 44.234375 -76.609375 L 43.0625 -76.609375 C 37.269531 -76.609375 32.984375 -74.085938 30.203125 -69.046875 C 27.429688 -64.003906 25.457031 -56.867188 24.28125 -47.640625 L 23.8125 -43.875 C 22.644531 -34.644531 22.765625 -27.507812 24.171875 -22.46875 C 25.578125 -17.425781 29.210938 -14.90625 35.078125 -14.90625 Z M 35.078125 -14.90625 "/></g></g></g><g fill="#ffde59" fill-opacity="0.4"><g transform="translate(344.82745, 98.703621)"><g><path d="M 12.78125 -91.515625 L 32.625 -91.515625 L 54.671875 -34.734375 L 56.671875 -53.734375 L 61.59375 -91.515625 L 79.78125 -91.515625 L 67.8125 0 L 47.984375 0 L 25.921875 -56.78125 L 23.9375 -37.78125 L 19 0 L 0.828125 0 Z M 12.78125 -91.515625 "/></g></g></g><g fill="#ffde59" fill-opacity="1"><g transform="translate(1.043057, 93.517602)"><g><path d="M 44.9375 0.234375 L 18.765625 0.234375 L 7.859375 -91.515625 L 28.28125 -91.515625 L 34.5 -21 L 59.375 -91.515625 L 79.78125 -91.515625 Z M 44.9375 0.234375 "/></g></g></g><g fill="#ffde59" fill-opacity="1"><g transform="translate(85.046914, 93.517602)"><g><path d="M 32.375 -91.515625 L 20.421875 0 L 1.40625 0 L 13.375 -91.515625 Z M 32.375 -91.515625 "/></g></g></g><g clip-path="url(#3e606e867b)"><g fill="#ffde59" fill-opacity="1"><g transform="translate(127.049779, 93.517602)"><g><path d="M 32.734375 -38.359375 C 22.878906 -40.160156 15.957031 -43.347656 11.96875 -47.921875 C 7.976562 -52.503906 6.414062 -58.117188 7.28125 -64.765625 L 7.625 -67.46875 C 8.71875 -75.914062 12.082031 -82.289062 17.71875 -86.59375 C 23.351562 -90.894531 30.863281 -93.046875 40.25 -93.046875 C 52.445312 -93.046875 61.066406 -90.382812 66.109375 -85.0625 C 71.160156 -79.738281 73.019531 -71.992188 71.6875 -61.828125 L 71.328125 -59.140625 L 52.328125 -59.140625 C 53.109375 -65.003906 52.640625 -69.378906 50.921875 -72.265625 C 49.203125 -75.160156 45.679688 -76.609375 40.359375 -76.609375 L 39.1875 -76.609375 C 36.0625 -76.609375 33.34375 -75.828125 31.03125 -74.265625 C 28.726562 -72.703125 27.378906 -70.472656 26.984375 -67.578125 L 26.75 -65.828125 C 26.519531 -64.023438 26.753906 -62.359375 27.453125 -60.828125 C 28.160156 -59.304688 29.644531 -57.957031 31.90625 -56.78125 C 34.175781 -55.613281 37.503906 -54.597656 41.890625 -53.734375 C 51.347656 -52.015625 58.265625 -48.882812 62.640625 -44.34375 C 67.023438 -39.8125 68.75 -33.945312 67.8125 -26.75 L 67.46875 -24.046875 C 66.375 -15.523438 62.910156 -9.128906 57.078125 -4.859375 C 51.253906 -0.597656 43.53125 1.53125 33.90625 1.53125 C 22.332031 1.53125 13.785156 -1.03125 8.265625 -6.15625 C 2.753906 -11.28125 0.625 -18.734375 1.875 -28.515625 L 2.234375 -31.203125 L 21.234375 -31.203125 C 20.453125 -25.335938 21.253906 -21.15625 23.640625 -18.65625 C 26.023438 -16.15625 29.410156 -14.90625 33.796875 -14.90625 L 34.96875 -14.90625 C 42.863281 -14.90625 47.242188 -17.914062 48.109375 -23.9375 L 48.34375 -25.6875 C 48.726562 -28.664062 47.84375 -31.207031 45.6875 -33.3125 C 43.539062 -35.425781 39.222656 -37.109375 32.734375 -38.359375 Z M 32.734375 -38.359375 "/></g></g></g></g><g fill="#ffde59" fill-opacity="1"><g transform="translate(209.880427, 93.517602)"><g><path d="M 32.375 -91.515625 L 20.421875 0 L 1.40625 0 L 13.375 -91.515625 Z M 32.375 -91.515625 "/></g></g></g><g clip-path="url(#ed259fde0a)"><g fill="#ffde59" fill-opacity="1"><g transform="translate(251.883292, 93.517602)"><g><path d="M 44.109375 -93.046875 C 56.003906 -93.046875 64.609375 -89.460938 69.921875 -82.296875 C 75.242188 -75.140625 76.890625 -63.585938 74.859375 -47.640625 L 74.390625 -43.875 C 73.054688 -33.320312 70.820312 -24.703125 67.6875 -18.015625 C 64.5625 -11.328125 60.359375 -6.394531 55.078125 -3.21875 C 49.804688 -0.0507812 43.179688 1.53125 35.203125 1.53125 C 23.304688 1.53125 14.71875 -2.046875 9.4375 -9.203125 C 4.164062 -16.367188 2.503906 -27.925781 4.453125 -43.875 L 4.921875 -47.640625 C 6.253906 -58.273438 8.484375 -66.914062 11.609375 -73.5625 C 14.742188 -80.207031 18.96875 -85.113281 24.28125 -88.28125 C 29.601562 -91.457031 36.210938 -93.046875 44.109375 -93.046875 Z M 35.078125 -14.90625 L 36.25 -14.90625 C 42.039062 -14.90625 46.320312 -17.425781 49.09375 -22.46875 C 51.875 -27.507812 53.851562 -34.644531 55.03125 -43.875 L 55.5 -47.640625 C 56.664062 -56.867188 56.546875 -64.003906 55.140625 -69.046875 C 53.734375 -74.085938 50.097656 -76.609375 44.234375 -76.609375 L 43.0625 -76.609375 C 37.269531 -76.609375 32.984375 -74.085938 30.203125 -69.046875 C 27.429688 -64.003906 25.457031 -56.867188 24.28125 -47.640625 L 23.8125 -43.875 C 22.644531 -34.644531 22.765625 -27.507812 24.171875 -22.46875 C 25.578125 -17.425781 29.210938 -14.90625 35.078125 -14.90625 Z M 35.078125 -14.90625 "/></g></g></g></g><g fill="#ffde59" fill-opacity="1"><g transform="translate(339.641417, 93.517602)"><g><path d="M 12.78125 -91.515625 L 32.625 -91.515625 L 54.671875 -34.734375 L 56.671875 -53.734375 L 61.59375 -91.515625 L 79.78125 -91.515625 L 67.8125 0 L 47.984375 0 L 25.921875 -56.78125 L 23.9375 -37.78125 L 19 0 L 0.828125 0 Z M 12.78125 -91.515625 "/></g></g></g></g></g></svg>